<svg version="1.2" xmlns="http://www.w3.org/2000/svg" viewBox="0 0 354 465" width="354" height="465">
	<style>
		.s0 { fill: #0074bd } 
		.s1 { fill: #ea2d2e } 
	</style>
	<g>
		<path fill-rule="evenodd" class="s0" d="m116.94 348.95c0 0-17.24 10.03 12.27 13.41 35.76 4.09 54.03 3.5 93.43-3.95 0 0 10.37 6.49 24.84 12.12-88.33 37.84-199.92-2.2-130.54-21.58z"/>
		<path fill-rule="evenodd" class="s0" d="m106.14 299.55c0 0-19.34 14.31 10.2 17.37 38.2 3.94 68.35 4.26 120.57-5.79 0 0 7.2 7.32 18.55 11.32-106.79 31.24-225.73 2.46-149.32-22.9z"/>
		<path fill-rule="evenodd" class="s1" d="m197.13 215.75c21.78 25.07-5.71 47.61-5.71 47.61 0 0 55.26-28.53 29.89-64.27-23.71-33.31-41.89-49.85 56.52-106.92 0 0-154.47 38.57-80.7 123.58z"/>
		<path fill-rule="evenodd" class="s0" d="m313.96 385.49c0 0 12.76 10.52-14.05 18.65-50.98 15.44-212.21 20.1-256.99 0.62-16.09-7.01 14.09-16.72 23.59-18.77 9.9-2.14 15.55-1.75 15.55-1.75-17.9-12.61-115.72 24.76-49.68 35.48 180.1 29.19 328.29-13.15 281.58-34.23z"/>
		<path fill-rule="evenodd" class="s0" d="m125.23 248.36c0 0-82 19.49-29.04 26.57 22.37 2.99 66.94 2.3 108.49-1.18 33.94-2.85 68-8.94 68-8.94 0 0-11.96 5.13-20.62 11.03-83.29 21.91-244.16 11.71-197.84-10.69 39.16-18.94 71.01-16.79 71.01-16.79z"/>
		<path fill-rule="evenodd" class="s0" d="m272.34 330.59c84.67-43.98 45.52-86.25 18.19-80.56-6.68 1.39-9.68 2.6-9.68 2.6 0 0 2.49-3.9 7.23-5.58 54.06-18.99 95.62 56.05-17.43 85.76 0 0 1.3-1.17 1.69-2.22z"/>
		<path fill-rule="evenodd" class="s1" d="m221.31 0c0 0 46.88 46.9-44.47 119.01-73.26 57.86-16.71 90.84-0.03 128.54-42.77-38.58-74.13-72.55-53.09-104.16 30.89-46.4 116.5-68.9 97.59-143.39z"/>
		<path fill-rule="evenodd" class="s0" d="m133.55 449.81c81.25 5.19 206.05-2.89 209-41.34 0 0-5.68 14.57-67.15 26.14-69.35 13.05-154.91 11.53-205.64 3.16 0 0 10.4 8.6 63.79 12.04z"/>
		<path fill-rule="evenodd" class="s1" d="m338.8 518.76v6.91h1.73v-6.91h2.46v-1.38h-6.66v1.38zm13.3 0.35v6.56h1.59v-8.29h-2.38l-2.27 5.87-2.26-5.87h-2.4v8.29h1.64v-6.56h0.02l2.44 6.56h1.13l2.46-6.56z"/>
		<path fill-rule="evenodd" class="s1" d="m124.8 620.57l-1.66-11.21c-9.12 7.9-18.88 13.29-31.95 13.29-20.32 0-31.12-10.37-31.12-28.63 0-21.18 16.38-35.27 52.7-35.27h7.47v-9.34c0-12.45-6.43-18.47-21.38-18.47-10.8 0-21.79 2.9-30.29 6.02l-3.1-13.08c10.79-4.76 24.06-8.51 39.2-8.51 25.95 0 36.72 12.46 36.72 31.34v73.86zm-4.56-48.34h-8.91c-24.09 0-30.1 7.89-30.1 18.67 0 9.96 5.62 16.19 15.97 16.19 7.28 0 15.38-3.74 23.04-10.38z"/>
		<path fill-rule="evenodd" class="s1" d="m211.97 620.57h-26.37l-31.75-103.31h23.03l19.71 63.48 4.38 19.08c9.95-27.59 17-55.6 20.53-82.56h22.4c-5.99 34.02-16.8 71.36-31.93 103.31z"/>
		<path fill-rule="evenodd" class="s1" d="m317.74 620.57l-1.67-11.21c-9.14 7.9-18.88 13.29-31.96 13.29-20.32 0-31.11-10.37-31.11-28.63 0-21.18 16.38-35.27 52.7-35.27h7.48v-9.34c0-12.45-6.45-18.47-21.38-18.47-10.79 0-21.8 2.9-30.3 6.02l-3.11-13.08c10.79-4.76 24.06-8.51 39.22-8.51 25.93 0 36.72 12.46 36.72 31.34v73.86zm-4.56-23.86v-24.48h-8.93c-24.07 0-30.1 7.89-30.1 18.67 0 9.96 5.62 16.19 15.98 16.19 7.26 0 15.36-3.74 23.05-10.38z"/>
		<path fill-rule="evenodd" class="s1" d="m36.87 638.13c-6.02 8.8-15.77 15.78-26.43 19.71l-10.44-12.3c8.12-4.17 15.08-10.89 18.31-17.15 2.79-5.58 3.95-12.75 3.95-29.92v-117.96h22.48v116.34c0 22.96-1.83 32.24-7.87 41.28z"/>
	</g>
</svg>